<?xml version="1.0" encoding="UTF-8"?>
<!-- Generator: Adobe Illustrator 24.1.0, SVG Export Plug-In . SVG Version: 6.00 Build 0)  -->
<svg version="1.1" xmlns="http://www.w3.org/2000/svg" xmlns:xlink="http://www.w3.org/1999/xlink" x="0px" y="0px" viewBox="0 0 851.5 642.8" style="enable-background:new 0 0 851.5 642.8;" xml:space="preserve">
<style type="text/css">
	.st0{fill:#FFFFFF;}
	.st1{fill:#000091;}
	.st2{fill:#E1000F;}
	.st3{fill:#9D9D9C;}
	.st4{fill:none;}
</style>
<g id="vect">
	<rect class="st0" width="851.5" height="642.8"/>
	<g>
		<g>
			<path d="M289.5,538.2c1.7,0,3.2,1.3,2.4,4.6l-8,1.9C285.4,540.9,287.7,538.2,289.5,538.2 M293.9,551h-1.6c-2,2.4-4.1,4.2-6.3,4.2     c-2.2,0-3.3-1.3-3.3-4.2c0-1.2,0.1-2.4,0.4-3.5l12.8-4.2c2.5-5.9-0.5-8.5-4-8.5c-6.1,0-13,10.1-13,19c0,4,1.9,6.2,4.9,6.2     C287.3,560,291,556.6,293.9,551 M291.4,532.4l9-8.4v-1h-4.9l-5.6,9.4H291.4z M263.7,538.3h4.3l-6.8,18.5     c-0.6,1.6,0.2,3.1,1.9,3.1c3.8,0,10-3.8,12.2-9h-1.2c-1.7,1.8-5,4.2-7.8,4.7l6.2-17.4h6.3l0.8-2.6h-6.2l2.4-6.7h-2.5l-4.4,6.7     l-5.2,0.7V538.3z M257.9,537.5c0.5-1.7-0.6-2.7-1.5-2.7c-3.7,0-8.1,3.3-9.9,8h1.2c1.2-1.7,3.2-3.6,5.1-3.9l-7.1,18.4     c-0.6,1.7,0.6,2.7,1.5,2.7c3.5,0,7.6-3.4,9.4-8h-1.2c-1.2,1.7-3.2,3.6-5.1,3.9L257.9,537.5z M259.2,528.2c1.7,0,3.1-1.3,3.1-3.1     c0-1.7-1.4-3.1-3.1-3.1c-1.7,0-3.1,1.4-3.1,3.1C256.2,526.9,257.5,528.2,259.2,528.2 M218.4,556.5c-0.9,2.1,0,3.4,2.1,3.4     c1.3,0,1.8-0.3,2.3-1.7l4.9-13c2.3-2.8,6.9-5.7,8.8-5.7c1.3,0,1.2,1.1,0.3,2.8l-7.5,14.5c-0.7,1.4,0.2,3.1,1.9,3.1     c3.7,0,8.1-3.3,9.9-8h-1.2c-1.2,1.7-3.2,3.6-5.1,3.9l6.5-13.1c0.8-1.7,1.3-3.2,1.3-4.5c0-2.1-1.2-3.5-3.4-3.5     c-3.2,0-6.4,3.6-10.3,8.1v-3.4c0-2.5-0.8-4.6-3-4.6c-1.4,0-2.7,1.2-4,2.9v0.5c2.4-0.1,3.5,3.5,1.8,7.3L218.4,556.5z M218.3,540.4     c0.9-3,0.4-5.6-1.9-5.6c-2.7,0-3.4,2.1-6.2,8.1v-3.4c0-2.5-0.8-4.6-3-4.6c-2.6,0-5,4-6.8,8h1.2c1.3-1.8,2.4-2.9,3.3-2.9     c1.1,0,1.7,1.7,0,5.5l-5,11.1c-0.9,2.1,0,3.4,2.1,3.4c1.3,0,1.8-0.3,2.3-1.7l4.9-13c1.4-1.7,2.6-3.2,4.2-4.9H218.3z M189.9,538.2     c1.7,0,3.2,1.3,2.4,4.6l-8,1.9C185.7,540.9,188.1,538.2,189.9,538.2 M194.3,551h-1.6c-2,2.4-4.1,4.2-6.3,4.2     c-2.2,0-3.3-1.3-3.3-4.2c0-1.2,0.1-2.4,0.4-3.5l12.8-4.2c2.5-5.9-0.5-8.5-4-8.5c-6.1,0-13,10.1-13,19c0,4,1.9,6.2,4.9,6.2     C187.7,560,191.3,556.6,194.3,551 M164.1,538.3h4.3l-6.8,18.5c-0.6,1.6,0.2,3.1,1.9,3.1c3.8,0,10-3.8,12.2-9h-1.2     c-1.7,1.8-5,4.2-7.8,4.7l6.2-17.4h6.3l0.8-2.6h-6.2l2.4-6.7h-2.5l-4.4,6.7l-5.2,0.7V538.3z M140.7,552.7c0-5.7,6.3-13.4,9.9-13.4     c0.8,0,1.5,0.1,2.2,0.3l-3.7,9.9c-2.1,2.6-5.4,5.7-6.9,5.7C141.2,555.2,140.7,554.5,140.7,552.7 M160.2,533.7l-1.9-0.1l-2.2,2.1     h-0.5c-10.6,0-19.7,11.9-19.7,20.5c0,2.4,1.5,3.8,3.8,3.8c2.7,0,5.4-3.9,8.4-8.1l-0.1,1.5c-0.4,4.3,0.9,6.6,3.1,6.6     c2.6,0,5-4,6.8-8h-1.2c-1.3,1.8-2.4,2.9-3.3,2.9c-1,0-1.7-1.8,0-5.5L160.2,533.7z M137.7,540.4c0.9-3,0.4-5.6-1.9-5.6     c-2.7,0-3.4,2.1-6.2,8.1v-3.4c0-2.5-0.8-4.6-3-4.6c-2.6,0-5,4-6.8,8h1.2c1.3-1.8,2.4-2.9,3.3-2.9c1.1,0,1.7,1.7,0,5.5l-5,11.1     c-0.9,2.1,0,3.4,2.1,3.4c1.3,0,1.8-0.3,2.3-1.7l4.9-13c1.4-1.7,2.6-3.2,4.2-4.9H137.7z M102.2,559l0.5-1.4     c-6.2-1.2-6.9-1.2-4.5-7.9l2.5-6.9h6.8c3.1,0,3.1,1.3,2.6,4.6h1.8l4.1-11.2h-1.8c-1.5,2.6-2.7,4.6-6.1,4.6h-6.7l3.6-9.8     c1.1-3.1,1.8-3.8,5.9-3.8h3c4.3,0,4.8,1.2,4.8,5.5h1.7l1.4-7.6H96.3l-0.5,1.4c5,1,5.4,1.5,3.1,7.9l-5.6,15.2     c-2.3,6.3-3.3,6.9-9,7.9L84,559H102.2z"/>
			<path d="M227.5,480.3c1.7,0,3.2,1.3,2.4,4.6l-8,1.9C223.3,483,225.7,480.3,227.5,480.3 M231.9,493.1h-1.6c-2,2.4-4.1,4.2-6.3,4.2     c-2.2,0-3.3-1.3-3.3-4.2c0-1.2,0.1-2.4,0.4-3.5l12.8-4.2c2.5-5.9-0.5-8.5-4-8.5c-6.1,0-13,10.1-13,19c0,4,1.9,6.2,4.9,6.2     C225.3,502.1,229,498.7,231.9,493.1 M229.4,474.5l9-8.4v-1h-4.9l-5.6,9.4H229.4z M201.7,480.5h4.3l-6.8,18.5     c-0.6,1.6,0.2,3.1,1.9,3.1c3.8,0,10-3.8,12.2-9H212c-1.7,1.8-5,4.2-7.8,4.7l6.2-17.4h6.3l0.8-2.6h-6.2l2.4-6.7h-2.5l-4.4,6.7     l-5.2,0.7V480.5z M195.9,479.6c0.5-1.7-0.6-2.7-1.5-2.7c-3.7,0-8.1,3.3-9.9,8h1.2c1.2-1.7,3.2-3.6,5.1-3.9l-7.1,18.4     c-0.6,1.7,0.6,2.7,1.5,2.7c3.5,0,7.6-3.4,9.4-8h-1.2c-1.2,1.7-3.2,3.6-5.1,3.9L195.9,479.6z M197.2,470.3c1.7,0,3.1-1.3,3.1-3.1     c0-1.7-1.4-3.1-3.1-3.1c-1.7,0-3.1,1.4-3.1,3.1C194.2,469,195.5,470.3,197.2,470.3 M172.6,498l12.9-33.9l-0.4-0.5l-8.1,0.9v1     l1.6,1.2c1.4,1.1,1,2.2-0.3,5.6l-10.1,26.6c-0.7,1.4,0.2,3.1,1.9,3.1c3.7,0,7.6-3.3,9.4-8h-1.2C177,495.8,174.5,497.7,172.6,498      M148.1,494.9c0-5.7,6.3-13.4,9.9-13.4c0.8,0,1.5,0.1,2.2,0.3l-3.7,9.9c-2.1,2.6-5.4,5.7-6.9,5.7     C148.6,497.3,148.1,496.6,148.1,494.9 M167.5,475.8l-1.9-0.1l-2.2,2.1H163c-10.6,0-19.7,11.9-19.7,20.5c0,2.4,1.5,3.8,3.8,3.8     c2.7,0,5.4-3.9,8.4-8.1l-0.1,1.5c-0.4,4.3,0.9,6.6,3.1,6.6c2.6,0,5-4,6.8-8h-1.2c-1.3,1.8-2.4,2.9-3.3,2.9c-1,0-1.7-1.8,0-5.5     L167.5,475.8z M120.4,506.6c0-2.5,2.4-4,5.7-5.3c1.1,0.6,2.8,1.2,5,1.9c3.5,1.2,4.9,1.6,4.9,2.7c0,2.3-3.8,4-9.1,4     C122.5,509.8,120.4,508.9,120.4,506.6 M130,491.6c-1.5,0-2.1-1.3-2.1-2.8c0-4.1,2.2-10.2,5.7-10.2c1.5,0,2.1,1.3,2.1,2.8     C135.7,485.5,133.5,491.6,130,491.6 M140,504.3c0-3-2.6-4-6.9-5.3c-3.7-1.1-5.4-1.4-5.4-2.6c0-1,0.8-2.1,2.4-3     c6.1-0.3,10-5.8,10-10.4c0-1-0.2-1.8-0.5-2.5h5.1l0.8-2.6h-8.2c-1-0.6-2.1-0.9-3.3-0.9c-6.4,0-10.6,5.6-10.6,10.2     c0,3.5,2.2,5.6,4.9,6.2c-3,1.3-4.7,2.9-4.7,4.8c0,1.1,0.4,1.8,1.3,2.5c-6.9,2-9.7,4.4-9.7,7.6c0,3.2,4.2,4.5,9.2,4.5     C133,512.7,140,508.1,140,504.3 M107.7,484.5c3.1,0,3.1,1.3,2.6,4.6h1.8l4.1-11.2h-1.8c-1.5,2.6-2.7,4.6-6.1,4.6h-6.7l3.4-9.3     c1.1-3.1,1.8-3.7,5.9-3.7h3c4.3,0,4.8,1.2,4.8,5.5h1.7l1.4-7.6H96.3l-0.5,1.4c5,1,5.4,1.5,3.1,7.9l-5.6,15.2     c-2.3,6.3-3.3,6.9-9,7.9l-0.4,1.4h28.4l5.1-8.1h-1.9c-3.2,3.1-7.3,6-13,6c-7.5,0-6.9-0.3-4.4-7.2l2.7-7.4H107.7z M111.4,465.1     l9-6.2v-1h-5.5l-5,7.2H111.4z"/>
			<path d="M224.5,422.4c1.7,0,3.2,1.3,2.4,4.6l-8,1.9C220.3,425.2,222.7,422.4,224.5,422.4 M228.9,435.3h-1.6     c-2,2.4-4.1,4.2-6.3,4.2c-2.2,0-3.3-1.3-3.3-4.2c0-1.2,0.1-2.4,0.4-3.5l12.8-4.2c2.5-5.9-0.5-8.5-4-8.5c-6.1,0-13,10.1-13,19     c0,4,1.9,6.2,4.9,6.2C222.3,444.2,225.9,440.8,228.9,435.3 M226.4,416.6l9-8.4v-1h-4.9l-5.6,9.4H226.4z M199.8,422.6h3.4     l-6.8,18.5c-0.6,1.6,0.2,3.1,1.9,3.1c3.8,0,10-3.8,12.2-9h-1.2c-1.7,1.8-5,4.2-7.8,4.7l6.2-17.4h6.3l0.8-2.6h-6.2l2.4-6.7h-2.5     l-4.4,6.7l-4.4,0.7V422.6z M196.5,424.7c0.9-3,0.4-5.6-1.9-5.6c-2.7,0-3.4,2.1-6.2,8.1v-3.4c0-2.5-0.8-4.6-3-4.6     c-2.6,0-5,4-6.8,8h1.2c1.3-1.8,2.4-2.9,3.3-2.9c1.1,0,1.7,1.7,0,5.5l-5,11.1c-0.9,2.1,0,3.4,2.1,3.4c1.3,0,1.8-0.3,2.3-1.7     l4.9-13c1.4-1.7,2.6-3.2,4.2-4.9H196.5z M168.1,422.4c1.7,0,3.2,1.3,2.4,4.6l-8,1.9C163.9,425.2,166.2,422.4,168.1,422.4      M172.5,435.3h-1.6c-2,2.4-4.1,4.2-6.3,4.2c-2.2,0-3.3-1.3-3.3-4.2c0-1.2,0.1-2.4,0.4-3.5l12.8-4.2c2.5-5.9-0.5-8.5-4-8.5     c-6.1,0-13,10.1-13,19c0,4,1.9,6.2,4.9,6.2C165.9,444.2,169.5,440.8,172.5,435.3 M141,440.4c-1.3,0-3.1-1.2-3.1-2.2     c0-0.3,0.6-1.8,1.3-3.6l2.1-5.5c2.2-2.6,5.6-5.5,7.5-5.5c1.2,0,2,0.7,2,2.5C150.8,431.2,146.1,440.4,141,440.4 M155.6,424.1     c0-3.8-1.4-5.1-4-5.1c-3.2,0-6.3,3.4-9.4,7.6l7.7-20.3l-0.4-0.5l-8.1,0.9v1l1.6,1.2c1.4,1.1,1,2.3-0.3,5.6l-8.3,21.5     c-0.6,1.6-1.3,3.4-1.3,3.9c0,2.2,3,4.3,5.7,4.3C145.1,444.2,155.6,432.8,155.6,424.1 M130.4,421.7c0.5-1.7-0.6-2.7-1.5-2.7     c-3.7,0-8.1,3.3-9.9,8h1.2c1.2-1.7,3.2-3.6,5.1-3.9l-7.1,18.4c-0.6,1.7,0.6,2.7,1.5,2.7c3.5,0,7.6-3.4,9.4-8H128     c-1.2,1.7-3.2,3.6-5.1,3.9L130.4,421.7z M131.7,412.4c1.7,0,3.1-1.3,3.1-3.1c0-1.7-1.4-3.1-3.1-3.1c-1.7,0-3.1,1.4-3.1,3.1     C128.7,411.1,130,412.4,131.7,412.4 M113,409.5H96.2l-0.5,1.4c5,1,5.4,1.5,3.1,7.9L93.4,434c-2.3,6.3-3.3,6.9-9,7.9l-0.4,1.4     h25.7l5.6-9.9h-1.9c-3.1,3.5-6.9,7.8-12.5,7.8c-4.3,0-4.8-0.7-2.5-7.2l5.5-15.2c2.3-6.3,3.3-6.9,9-7.9L113,409.5z"/>
		</g>
		<g>
			<path class="st1" d="M179.1,157.8c0.9-0.9,1.8-1.9,2.7-2.8h0c1.7-1.9,3.3-3.7,5.3-5.4c0.6-0.5,1.2-1,1.7-1.4     c0.2-0.2,0.2-0.5,0.3-0.6c-0.8,0.3-1.3,1-2.1,1.3c-0.2,0-0.3-0.2-0.2-0.3c0.6-0.4,1.1-0.8,1.7-1.3c0,0-0.1,0-0.1,0     c-0.2,0-0.2-0.2-0.2-0.3c-2.1-0.3-3.6,1.1-5.1,2.4c-0.3,0.2-0.6-0.2-0.8-0.2c-2.4,0.8-4.1,2.9-6.5,3.8c0-0.2,0-0.2,0-0.3     c-1,0.3-1.9,0.9-2.9,1.1c-1.4,0.3-2.7,0.2-4,0.2c-1.9,0.2-3.8,0.6-5.8,1c-0.1,0-0.1,0-0.2,0c-1,0.3-2,0.7-3,1.2     c0,0-0.1,0-0.1,0.1c-0.1,0.1-0.2,0.2-0.2,0.3c-0.3,0.4-0.6,0.7-1.1,0.9c-1,0.5-1.8,1.4-2.6,2.1c-0.1,0.1-0.2,0.1-0.3,0.1     c-0.9,0.8-1.7,1.6-2.6,2.4c-0.1,0.1-0.3,0.1-0.5,0.1c0,0,0,0,0,0c0-0.1,0.1-0.1,0.1-0.2c0.1-0.2,0.3-0.4,0.4-0.7     c0.2-0.2,0.3-0.5,0.5-0.7c0.2-0.3,0.4-0.7,0.7-1c0.1-0.1,0-0.2,0-0.2c-0.1-0.1-0.1-0.1-0.2-0.1c0.8-0.8,1.7-1.4,2.7-2     c0,0,0,0,0,0c-0.1,0-0.3,0-0.2-0.2c0.1-0.1,0.2-0.3,0.3-0.4c0,0,0-0.1,0.1-0.1c0,0-0.1-0.1-0.1-0.1c-0.3,0.2-0.5,0.3-0.7,0.5     c-0.4,0.3-0.7,1-1.3,1c0,0-0.1,0-0.2,0c-0.1,0-0.1,0-0.2-0.1c0,0,0,0,0,0c0,0,0,0,0,0c0,0,0,0,0,0c0,0,0-0.1,0.1-0.1     c0,0,0.1-0.1,0.1-0.1c0,0,0-0.1,0.1-0.1c0-0.1,0.1-0.1,0.1-0.2c0,0,0.1-0.1,0.1-0.1c0.1-0.1,0.1-0.2,0.2-0.3     c0-0.1,0.1-0.1,0.1-0.2c0.1-0.1,0.1-0.2,0.2-0.3c0.1-0.1,0-0.2-0.1-0.3c0.3-0.4,0.7-0.7,1.1-0.9h0c0.6-0.3,1.2-0.7,1.8-1     c0.1-0.1,0.2-0.2,0.3-0.2c-0.9,0.3-1.7,0.7-2.5,1.2c0,0-0.2,0.1-0.3,0.1c0,0-0.2,0.1-0.4-0.1c0,0,0-0.1,0-0.1     c0.2-0.3,0.6-0.5,1-0.8c0.2,0,0.3,0,0.3,0.2c5.1-4,12-3,17.9-5.1c0.5-0.3,1-0.6,1.4-1c0.8-0.3,1.4-1.1,2.4-1.6     c1.3-1,2.2-2.1,2.7-3.6c0-0.2-0.2-0.3-0.2-0.3c-2.1,2.2-4.4,4-7,5.2c-3.3,1.7-7,1.4-10.5,1.9c0.2-0.3,0.5-0.3,0.8-0.3     c0-0.5,0.3-0.6,0.6-1c0.2,0,0.3,0,0.5,0c0.2,0,0.2-0.3,0.3-0.3c0.3,0,0.8-0.2,0.6-0.2c-0.5-0.6-1.4,0.5-2.2,0     c0.3-0.3,0.2-0.8,0.5-1c0.2,0,0.5,0,0.6,0c0-0.3,0.3-0.6,0.3-0.6c2.4-1.4,4.6-2.5,6.8-3.8c-0.5,0-0.8,0.5-1.3,0.2     c0.3,0,0-0.5,0.3-0.5c1.7-0.5,3.2-1.4,4.9-2.1c-0.6,0-1.1,0.5-1.7,0c0.3-0.2,0.5-0.5,1-0.5c0-0.2,0-0.3,0-0.5     c0-0.2,0.2-0.2,0.3-0.2c-0.2,0-0.3-0.2-0.3-0.2c0.2-0.3,0.6-0.2,1-0.5c-0.2,0-0.5,0-0.5-0.2c0.5-0.6,1.3-0.8,2.1-1     c-0.2-0.3-0.6,0-0.6-0.3c0-0.2,0.2-0.2,0.3-0.2c-0.2,0-0.2,0-0.3,0c-0.3-0.2-0.2-0.5-0.2-0.6c1-1.1,1-2.5,1.4-3.8     c-0.2,0-0.3,0-0.3-0.2c-1.6,1.7-4.1,2.4-6.5,3c-0.2,0-0.6,0-0.8,0c-0.8,0.3-1.9,0.3-2.7-0.2c-0.6-0.3-1-0.8-1.6-1.3     c-1.3-0.8-2.5-1.4-4-1.9c-4-1.3-8.1-1.9-12.2-1.7c1.7-1,3.7-1,5.5-1.6c2.7-0.8,5.2-1.7,8.1-1.6c-0.5-0.2-1.1,0-1.6,0     c-2.2-0.2-4.4,0.5-6.8,1c-1.6,0.3-3,1-4.6,1.3c-1,0.3-1.4,1.3-2.5,1.1c0,0,0-0.3,0-0.5c1.6-1.9,3.5-3.8,6-4     c2.9-0.5,5.5,0,8.4,0.3c2.1,0.2,4,0.6,6,1.1c0.8,0,1,1.3,1.6,1.4c1,0.3,1.9,0,2.9,0.6c0-0.3-0.2-0.6,0-1c0.6-0.6,1.4,0.2,2.1-0.2     c1.3-0.8-1.1-2.2-1.7-3.3c0-0.2,0.2-0.3,0.2-0.3c1.3,1.1,2.2,2.4,3.8,3.2c0.8,0.3,2.7,0.8,2.4-0.2c-0.8-1.7-2.4-3.2-3.6-4.8     c0-0.2,0-0.5,0-0.6c-0.3,0-0.3-0.2-0.5-0.3c0-0.2,0-0.5,0-0.6c-0.6-0.3-0.5-1-0.8-1.4c-0.5-0.8-0.2-1.9-0.5-2.9     c-0.3-1-0.5-1.7-0.6-2.7c-0.5-2.7-1.1-5.1-1.4-7.6c-0.3-3,1.7-5.4,3.2-8.1c1.1-1.9,2.4-3.8,4.4-5.1c0.5-1.9,1.7-3.5,3-5.1     c1.3-1.5,3.4-2.5,4.9-3.2c2.2-1,4.2-1.6,4.2-1.6H83.8v83.9h77c3-2.2,6-3.2,10.2-5.3C173,161.4,177.6,159.3,179.1,157.8z      M154.8,146.4c-0.3,0-1,0.2-0.8-0.2c0.2-0.8,1.3-0.8,1.9-1.1c0.3-0.2,0.8-0.5,1.1-0.3c0.3,0.5,0.8,0.3,1.1,0.6     C157.1,146.4,155.9,145.9,154.8,146.4z M130.5,142.9c0,0-0.2-0.2-0.2-0.3c2.1-2.7,3.6-5.2,5.1-8.1c2.1-1.1,3.8-2.7,5.4-4.4     c2.7-2.9,5.5-5.4,8.9-7c1.3-0.5,2.9-0.3,4.1,0.2c-0.5,0.6-1.3,0.5-1.9,1c-0.2,0-0.3,0-0.5-0.2c0.2-0.2,0.2-0.3,0.2-0.5     c-1.6,1.7-3.8,2.5-5.1,4.6c-1,1.6-1.6,3.6-3.6,4.1c-0.6,0.2,0.2-0.5-0.2-0.3C137.8,135,134.3,138.6,130.5,142.9z M143.7,132.5     c-0.2,0.3-0.3,0.4-0.5,0.6c-0.2,0.3-0.3,0.5-0.6,0.6c-0.2,0-0.3,0-0.3-0.2c0.2-0.6,0.6-1.3,1.3-1.4     C143.7,132.1,143.7,132.3,143.7,132.5z M151,156.2c-0.1,0.2-0.2,0.3-0.4,0.5c0.2,0,0.3,0.1,0.2,0.2c-0.4,0.3-0.7,0.7-1.2,0.8     c0,0-0.1,0-0.2,0c-0.2,0.2-0.4,0.4-0.6,0.6c-0.2,0.2-1.1,0-0.8-0.2c0.4-0.4,0.8-0.7,1.2-1.1c0.2-0.2,0.5-0.4,0.7-0.6     c0.1-0.1,0.2-0.3,0.3-0.4C150.3,156,151.2,155.9,151,156.2z M148.2,154.9C148.2,154.9,148.2,154.9,148.2,154.9     c-0.6,0.4-1.2,0.9-1.8,1.2c-0.7,0.4-1.4,0.7-2.1,1c0,0,0,0,0,0c-0.1-0.1-0.2-0.1-0.3-0.1c-0.6,0.3-1.1,0.8-1.6,1.2     c-0.1,0.1-0.1,0.1-0.2,0.2c0,0,0,0,0,0c0,0,0,0,0,0c-0.1,0.1-0.2,0.1-0.2,0.2c0,0,0,0,0,0c0,0,0,0,0,0c-0.1,0.1-0.2,0.2-0.3,0.4     c-0.1,0.1-0.1,0.2-0.2,0.2c-0.1,0.1-0.4,0.1-0.3-0.1c0,0,0,0,0,0c-0.1,0-0.2,0.1-0.3,0.1c-0.1,0-0.2,0.1-0.2,0.1c0,0-0.1,0-0.1,0     c0,0-0.1,0-0.1,0c-0.2,0.2-0.4,0.3-0.6,0.5c-0.3,0.3-0.6,0.6-0.9,1c0,0,0,0,0,0c0,0,0,0,0,0c0,0,0,0,0,0.1c0,0,0,0-0.1,0.1     c0,0,0,0,0,0c0,0.1-0.1,0.1-0.1,0.2c0,0,0,0,0,0c0,0-0.1,0.1-0.1,0.1c0,0,0-0.1-0.1-0.1c0,0,0-0.1,0-0.1c0-0.1-0.1-0.2-0.1-0.3     c0,0,0,0,0,0c0,0,0-0.1,0-0.1c0.2-0.2,0.3-0.4,0.5-0.6c0,0,0,0,0,0c0.1-0.1,0.1-0.1,0.2-0.2c0.1-0.1,0.2-0.2,0.3-0.3     c0,0,0.1-0.1,0.1-0.1c0.2-0.2,0.3-0.4,0.5-0.7c0,0,0,0,0,0c0,0,0-0.1,0.1-0.1c0.1-0.1,0.1-0.2,0.2-0.3c0.1-0.1,0.1-0.2,0.2-0.3     c0,0,0,0,0,0c0,0,0,0,0,0c0,0,0,0,0-0.1c0.1-0.1,0.1-0.2,0.2-0.4c0,0,0,0,0,0c0,0,0-0.1,0-0.1c0-0.1,0-0.1,0-0.2l0,0c0,0,0,0,0,0     c0-0.1,0-0.2,0.1-0.2c0,0,0-0.1,0-0.1c0.2-0.3,0.4-0.6,0.6-0.9c0,0,0,0-0.1,0c-0.2,0.1-0.4,0.3-0.6,0.5c-0.2,0.1-0.5-0.1-0.3-0.2     c0.1-0.1,0.2-0.2,0.4-0.3c0,0,0,0,0,0c0.3-0.3,0.5-0.6,0.8-0.8c0.2-0.1,0.3-0.2,0.5-0.4c0,0,0,0,0.1-0.1c0.1-0.1,0.2-0.3,0.4-0.4     c0,0,0,0,0,0c1.5-1.5,4.1-1.4,6.1-2.3c0.8-0.3,1.7,0.2,2.5,0c0.5,0,1,0,1.4,0.3C150.8,153.2,149.5,154.1,148.2,154.9z      M151.4,143.9c-0.2-0.2,0.5,0,0.6-0.3c-0.5,0-0.8,0-1.3,0c-0.2,0-0.2-0.2-0.2-0.3c-0.8,0.2-1.7,0.5-2.5,0.6     c-1.1,0.3-2.1,1.1-3.3,1.4c-1.7,0.6-3.2,2.1-5.1,2.7c-0.2,0-0.2-0.2-0.2-0.3c0.2-0.5,0.8-0.6,1.1-1.1c0-0.2,0-0.3-0.2-0.3     c1.3-1.7,3-2.7,4.6-4.1c0-0.2,0-0.3,0-0.5c0.5-0.6,1.3-1,1.6-1.7c0.2-0.5,0.8-1.1,1.6-1.4c-0.2-0.2-0.5-0.2-0.5-0.5     c-0.6,0-1.3,0.3-1.9-0.2c0.3-0.3,0.6-0.5,1-0.6c-0.1,0-0.3-0.1-0.4-0.2c-0.2-0.3,0.3-0.7,0.8-0.8c0.6-0.2,1.4-0.2,1.9-0.6     c-1.1-0.2-2.4,0.3-3.5-0.3c0.8-2.1,2.1-3.8,4-4.8c0.2,0,0.5,0,0.5,0.2c0,0.8-0.5,1.4-1.3,1.6c1.3,0.3,2.5,0.3,3.8,1     c-0.2,0.3-0.5,0.2-0.6,0.2c0.8,0.5,1.7,0.2,2.5,0.8c-0.5,0.5-1,0-1.4,0c4.9,1.4,10.1,2.5,14.3,5.7c-3.5,1.7-7.1,2.5-10.9,3.3     c-0.5,0-0.8,0-1.3-0.2c0,0.2,0,0.5-0.2,0.5c-0.6,0-1.1,0-1.6,0.3C152.9,144.2,151.9,144.3,151.4,143.9z"/>
			<g>
				<path class="st2" d="M314.4,83.8h-90.2c0,0,0.2,0,0.9,0.4c0.7,0.4,1.7,0.9,2.3,1.2c1.2,0.6,2.3,1.4,3,2.5      c0.3,0.5,0.8,1.4,0.5,2.1c-0.3,0.8-0.5,2.1-1.3,2.4c-1,0.5-2.2,0.5-3.3,0.3c-0.6,0-1.3-0.2-1.9-0.3c2.4,1,4.6,2.1,6.2,4.3      c0.2,0.3,0.8,0.5,1.4,0.5c0.2,0,0.2,0.3,0.2,0.5c-0.3,0.3-0.6,0.5-0.5,1c0.2,0,0.3,0,0.5,0c0.8-0.3,0.6-1.9,1.7-1.4      c0.8,0.5,1.1,1.6,0.6,2.4c-0.6,0.6-1.3,1.1-1.9,1.6c-0.2,0.3-0.2,0.8,0,1.1c0.5,0.6,0.6,1.3,0.8,1.9c0.5,1.1,0.6,2.4,1.1,3.5      c0.6,2.4,1.3,4.8,1.1,7.1c0,1.3-0.6,2.4-0.2,3.6c0.3,1.3,1.1,2.2,1.7,3.3c0.6,1,1.3,1.6,1.7,2.5c1,1.6,2.7,3.2,1.9,5.1      c-0.5,1.1-2.2,1-3.3,1.6c-1,0.8-0.2,2.1,0.3,2.9c0.8,1.4-1,2.4-2.1,2.9c0.3,0.5,1,0.3,1.1,0.6c0.2,0.8,1,1.3,0.5,2.1      c-0.6,1-2.5,1.4-1.6,2.9c0.6,1.1,0.2,2.3-0.2,3.5c-0.5,1.4-1.7,2.1-2.9,2.4c-1,0.3-2.1,0.3-3,0.2c-0.3-0.2-0.6-0.3-1-0.3      c-2.7-0.3-5.4-1.1-8.1-1.1c-0.8,0.2-1.6,0.3-2.2,0.6c-0.7,0.5-1.4,1.1-1.9,1.7c0,0,0,0,0,0c-0.1,0.1-0.2,0.3-0.3,0.4      c-0.1,0.1-0.1,0.2-0.2,0.2c0,0.1-0.1,0.1-0.1,0.2c-0.5,0.6-0.9,1.2-1.2,1.8c0,0,0,0.1-0.1,0.1c0,0.1-0.1,0.1-0.1,0.2      c-0.5,1-0.9,1.9-1.2,2.9c-1.1,3.6-0.6,6.7,0.1,7.5c0.2,0.2,5.2,1.8,8.7,3.3c1.6,0.7,2.8,1.3,3.7,1.9h88.6V83.8z"/>
			</g>
			<path class="st3" d="M229.6,114.4c0.6,0.2,1.6,0.2,1.6,0.5c-0.3,1.3-2.2,1.6-3.2,2.9h-0.5c-0.5,0.3-0.3,1.1-0.8,1.1     c-0.5-0.2-1,0-1.4,0.2c0.6,0.6,1.4,1.1,2.4,1c0.2,0,0.5,0.3,0.5,0.6c0,0,0.2,0,0.3-0.2c0.2,0,0.3,0,0.3,0.2v0.6     c-0.5,0.6-1.3,0.3-1.9,0.5c1.3,0.3,2.5,0.3,3.6,0c1-0.3,0-1.9,0.6-2.7c-0.3,0,0-0.5-0.3-0.5c0.3-0.3,0.6-0.8,1-1     c0.3,0,0.8-0.2,1-0.5c0-0.3-0.6-0.5-0.5-0.8c1-0.6,1.7-1.6,1.4-2.5c-0.2-0.5-1.4-0.5-2.2-0.8c-0.8-0.3-1.7,0-2.7,0.2     c-0.8,0-1.6,0.5-2.4,0.6c-1.1,0.3-2.1,1-3,1.6c1.1-0.5,2.2-0.6,3.5-1C227.8,114.4,228.6,114.1,229.6,114.4z"/>
		</g>
	</g>
	<g>
		<path d="M107.1,209.5h16.6l23.6,62.3h-13.4l-6-16.2h-24.9l-6,16.2H83.5L107.1,209.5z M123.9,244.8l-8.5-23.4l-8.5,23.4H123.9z"/>
		<path d="M200.2,253.2l10,7.7c-5.7,7.7-15,12.7-26.3,12.7c-19.7,0-33.1-15.1-33.1-32.9c0-17.8,13.4-32.9,33.1-32.9    c11.3,0,20.6,5.1,26.3,12.6l-10,7.7c-3.6-5.1-9.2-8.5-16.3-8.5c-11.7,0-20.1,9.2-20.1,21.1c0,11.9,8.4,21.1,20.1,21.1    C191,261.8,196.6,258.3,200.2,253.2z"/>
		<path d="M237.1,209.5h16.6l23.6,62.3h-13.4l-6-16.2H233l-6,16.2h-13.4L237.1,209.5z M254,244.8l-8.5-23.4l-8.5,23.4H254z"/>
		<path d="M287.6,209.5h24.5c19.8,0,33.1,14.3,33.1,31.2c0,16.8-13.4,31.2-33.1,31.2h-24.5V209.5z M300.2,221v39.3h12    c11.6,0,19.9-8.6,19.9-19.7c0-11.1-8.4-19.7-19.9-19.7H300.2z"/>
		<path d="M358.1,209.5h36.3v10.8h-23.7v14.4h20.1v10.8h-20.1V261h23.7v10.8h-36.3V209.5z M370.4,204.2l10.1-12h13l-11.6,12H370.4z"/>
		<path d="M409.8,209.5h15.9l15,25.6l15-25.6h15.9v62.3h-12.6v-44.3l-13.9,23h-8.9l-13.9-23v44.3h-12.6V209.5z"/>
		<path d="M489.8,209.5h12.6v62.3h-12.6V209.5z"/>
		<path d="M520.6,209.5h36.3v10.8h-23.7v14.4h20.1v10.8h-20.1V261h23.7v10.8h-36.3V209.5z"/>
		<path d="M84.4,300.5h24.5c19.8,0,33.1,14.3,33.1,31.2c0,16.8-13.4,31.2-33.1,31.2H84.4V300.5z M97,312v39.3h12    c11.6,0,19.9-8.6,19.9-19.7c0-11.1-8.4-19.7-19.9-19.7H97z"/>
		<path d="M154.8,300.5h36.3v10.8h-23.7v14.4h20.1v10.8h-20.1V352h23.7v10.8h-36.3V300.5z"/>
		<path d="M236,300.5l18.4,48.7l18.4-48.7h13.4l-23.6,62.3h-16.6l-23.6-62.3H236z"/>
		<path d="M296.6,300.5h36.3v10.8h-23.7v14.4h20.1v10.8h-20.1V352h23.7v10.8h-36.3V300.5z"/>
		<path d="M348.3,300.5h19c13.7,0,22.2,7,22.2,18.6c0,7.5-3.6,13.1-10,16.1l19.6,27.6H384l-16.6-25.2H361v25.2h-12.6V300.5z     M361,311.3v15.6h7.1c5.3,0,8.5-2.8,8.5-7.9c0-4.7-3.1-7.7-8.5-7.7H361z"/>
		<path d="M411.1,345.7c3.7,4.8,8.7,7.7,13.8,7.7c5,0,8-2.7,8-7.2c0-11.1-28.5-8.6-28.5-29.4c0-9.9,8.1-18.1,19.9-18.1    c9.3,0,16.6,4.2,21.8,10.5l-9.3,8.3c-3.6-4.7-7.7-7.7-12.5-7.7c-4.4,0-7.2,2.8-7.2,6.5c0,11.1,28.5,8.5,28.5,29.6    c-0.2,11.6-9.3,18.7-20.6,18.7c-10.5,0-17.6-3.8-23.1-10.4L411.1,345.7z"/>
		<path d="M475.1,300.5h16.6l23.6,62.3h-13.4l-6-16.2h-24.9l-6,16.2h-13.4L475.1,300.5z M491.9,335.8l-8.5-23.4l-8.5,23.4H491.9z"/>
		<path d="M525.5,300.5h12.6v62.3h-12.6V300.5z"/>
		<path d="M556.3,300.5H569v50.8h23.7v11.5h-36.3V300.5z"/>
		<path d="M604.5,300.5h12.6v50.8h23.7v11.5h-36.3V300.5z"/>
		<path d="M652.6,300.5h36.3v10.8h-23.7v14.4h20.1v10.8h-20.1V352h23.7v10.8h-36.3V300.5z"/>
		<path d="M707.9,345.7c3.7,4.8,8.7,7.7,13.8,7.7c5,0,8-2.7,8-7.2c0-11.1-28.5-8.6-28.5-29.4c0-9.9,8.1-18.1,19.9-18.1    c9.3,0,16.6,4.2,21.8,10.5l-9.3,8.3c-3.6-4.7-7.7-7.7-12.5-7.7c-4.4,0-7.2,2.8-7.2,6.5c0,11.1,28.5,8.5,28.5,29.6    c-0.2,11.6-9.3,18.7-20.6,18.7c-10.5,0-17.6-3.8-23.1-10.4L707.9,345.7z"/>
	</g>
</g>
<g id="zone">
	
		<rect x="104.4" y="-104.4" transform="matrix(-1.836970e-16 1 -1 -1.836970e-16 747.1729 -104.3543)" class="st4" width="642.8" height="851.5"/>
	<rect x="83.8" y="83.8" class="st4" width="684" height="475.3"/>
</g>
</svg>